<?xml version="1.0" encoding="UTF-8" standalone="no"?>
<!DOCTYPE svg PUBLIC "-//W3C//DTD SVG 1.1//EN"
 "http://www.w3.org/Graphics/SVG/1.1/DTD/svg11.dtd">
<!-- Generated by graphviz version 2.38.0 (20140413.2041)
 -->
<!-- Title: structs Pages: 1 -->
<svg width="176pt" height="267pt"
 viewBox="0.00 0.00 176.00 267.00" xmlns="http://www.w3.org/2000/svg" xmlns:xlink="http://www.w3.org/1999/xlink">
<g id="graph0" class="graph" transform="scale(1 1) rotate(0) translate(4 263)">
<title>structs</title>
<polygon fill="white" stroke="none" points="-4,4 -4,-263 172,-263 172,4 -4,4"/>
<text text-anchor="middle" x="84" y="-7.8" font-family="Times,serif" font-size="14.00">Minimal Server</text>
<!-- xLog -->
<g id="node1" class="node"><title>xLog</title>
<polygon fill="none" stroke="black" points="0,-217.5 0,-253.5 54,-253.5 54,-217.5 0,-217.5"/>
<text text-anchor="middle" x="27" y="-231.8" font-family="Times,serif" font-size="14.00">Log</text>
</g>
<!-- xHomePage -->
<g id="node2" class="node"><title>xHomePage</title>
<polygon fill="none" stroke="black" points="18.5,-106.5 18.5,-175.5 95.5,-175.5 95.5,-106.5 18.5,-106.5"/>
<text text-anchor="middle" x="57" y="-160.3" font-family="Times,serif" font-size="14.00">app</text>
<polyline fill="none" stroke="black" points="18.5,-152.5 95.5,-152.5 "/>
<text text-anchor="middle" x="57" y="-137.3" font-family="Times,serif" font-size="14.00">HomePage</text>
<polyline fill="none" stroke="black" points="18.5,-129.5 95.5,-129.5 "/>
<text text-anchor="middle" x="57" y="-114.3" font-family="Times,serif" font-size="14.00">res</text>
</g>
<!-- xSend -->
<g id="node4" class="node"><title>xSend</title>
<polygon fill="none" stroke="black" points="30,-23.5 30,-69.5 84,-69.5 84,-23.5 30,-23.5"/>
<text text-anchor="middle" x="57" y="-54.3" font-family="Times,serif" font-size="14.00">res</text>
<polyline fill="none" stroke="black" points="30,-46.5 84,-46.5 "/>
<text text-anchor="middle" x="57" y="-31.3" font-family="Times,serif" font-size="14.00">Send</text>
</g>
<!-- xHomePage&#45;&gt;xSend -->
<g id="edge1" class="edge"><title>xHomePage:OUTPUT_res&#45;&gt;xSend:INPUT_res</title>
<path fill="none" stroke="black" d="M57,-106C57,-94 57,-88.75 57,-80.125"/>
<polygon fill="black" stroke="black" points="60.5001,-80 57,-70 53.5001,-80 60.5001,-80"/>
</g>
<!-- xApp -->
<g id="node3" class="node"><title>xApp</title>
<polygon fill="none" stroke="black" points="72,-212.5 72,-258.5 126,-258.5 126,-212.5 72,-212.5"/>
<text text-anchor="middle" x="99" y="-243.3" font-family="Times,serif" font-size="14.00">App</text>
<polyline fill="none" stroke="black" points="72,-235.5 126,-235.5 "/>
<text text-anchor="middle" x="99" y="-220.3" font-family="Times,serif" font-size="14.00">app</text>
</g>
<!-- xApp&#45;&gt;xHomePage -->
<g id="edge2" class="edge"><title>xApp:OUTPUT_app&#45;&gt;xHomePage:INPUT_app</title>
<path fill="none" stroke="black" d="M99,-212C99,-204.577 103.194,-184.27 102.162,-172.585"/>
<polygon fill="black" stroke="black" points="105.152,-170.767 97,-164 99.1531,-174.374 105.152,-170.767"/>
</g>
<!-- xListen -->
<g id="node5" class="node"><title>xListen</title>
<polygon fill="none" stroke="black" points="114,-118 114,-164 168,-164 168,-118 114,-118"/>
<text text-anchor="middle" x="141" y="-148.8" font-family="Times,serif" font-size="14.00">app</text>
<polyline fill="none" stroke="black" points="114,-141 168,-141 "/>
<text text-anchor="middle" x="141" y="-125.8" font-family="Times,serif" font-size="14.00">Listen</text>
</g>
<!-- xApp&#45;&gt;xListen -->
<g id="edge3" class="edge"><title>xApp:OUTPUT_app&#45;&gt;xListen:INPUT_app</title>
<path fill="none" stroke="black" d="M99,-212C99,-187.925 130.018,-191.207 138.742,-174.827"/>
<polygon fill="black" stroke="black" points="142.172,-175.53 141,-165 135.349,-173.962 142.172,-175.53"/>
</g>
</g>
</svg>
