<?xml version="1.0" encoding="UTF-8" standalone="no"?>
<!DOCTYPE svg PUBLIC "-//W3C//DTD SVG 1.1//EN"
 "http://www.w3.org/Graphics/SVG/1.1/DTD/svg11.dtd">
<!-- Generated by graphviz version 2.38.0 (20140413.2041)
 -->
<!-- Title: %3 Pages: 1 -->
<svg width="203pt" height="241pt"
 viewBox="0.00 0.00 203.00 241.00" xmlns="http://www.w3.org/2000/svg" xmlns:xlink="http://www.w3.org/1999/xlink">
<g id="graph0" class="graph" transform="scale(1 1) rotate(0) translate(4 237)">
<title>%3</title>
<polygon fill="white" stroke="none" points="-4,4 -4,-237 199,-237 199,4 -4,4"/>
<text text-anchor="middle" x="97.5" y="-7.8" font-family="Times,serif" font-size="14.00">Minimal Server</text>
<!-- xLog -->
<g id="node1" class="node"><title>xLog</title>
<polygon fill="none" stroke="black" points="54,-233 0,-233 0,-197 54,-197 54,-233"/>
<text text-anchor="middle" x="27" y="-211.3" font-family="Times,serif" font-size="14.00">Log</text>
</g>
<!-- xHomePage -->
<g id="node2" class="node"><title>xHomePage</title>
<polygon fill="none" stroke="black" points="93.5,-146 16.5,-146 16.5,-110 93.5,-110 93.5,-146"/>
<text text-anchor="middle" x="55" y="-124.3" font-family="Times,serif" font-size="14.00">HomePage</text>
</g>
<!-- xSend -->
<g id="node4" class="node"><title>xSend</title>
<polygon fill="none" stroke="black" points="82,-59 28,-59 28,-23 82,-23 82,-59"/>
<text text-anchor="middle" x="55" y="-37.3" font-family="Times,serif" font-size="14.00">Send</text>
</g>
<!-- xHomePage&#45;&gt;xSend -->
<g id="edge1" class="edge"><title>xHomePage&#45;&gt;xSend</title>
<path fill="none" stroke="black" d="M55,-109.799C55,-97.5865 55,-80.9921 55,-67.2776"/>
<ellipse fill="black" stroke="black" cx="55" cy="-63.1754" rx="4" ry="4"/>
<text text-anchor="middle" x="84" y="-80.8" font-family="Times,serif" font-size="14.00">res → &#160;res</text>
</g>
<!-- xApp -->
<g id="node3" class="node"><title>xApp</title>
<polygon fill="none" stroke="black" points="126,-233 72,-233 72,-197 126,-197 126,-233"/>
<text text-anchor="middle" x="99" y="-211.3" font-family="Times,serif" font-size="14.00">App</text>
</g>
<!-- xApp&#45;&gt;xHomePage -->
<g id="edge2" class="edge"><title>xApp&#45;&gt;xHomePage</title>
<path fill="none" stroke="black" d="M99,-196C99,-196 67.7247,-195.878 56,-179 51.096,-171.941 49.8354,-162.864 50.1337,-154.385"/>
<ellipse fill="black" stroke="black" cx="50.5136" cy="-150.187" rx="4" ry="4"/>
<text text-anchor="middle" x="88.5" y="-167.8" font-family="Times,serif" font-size="14.00">app → &#160;app</text>
</g>
<!-- xListen -->
<g id="node5" class="node"><title>xListen</title>
<polygon fill="none" stroke="black" points="170,-146 116,-146 116,-110 170,-110 170,-146"/>
<text text-anchor="middle" x="143" y="-124.3" font-family="Times,serif" font-size="14.00">Listen</text>
</g>
<!-- xApp&#45;&gt;xListen -->
<g id="edge3" class="edge"><title>xApp&#45;&gt;xListen</title>
<path fill="none" stroke="black" d="M99,-196C99,-196 113.388,-188.734 121,-179 126.815,-171.565 131.434,-162.353 134.908,-153.87"/>
<ellipse fill="black" stroke="black" cx="136.35" cy="-150.093" rx="4.00001" ry="4.00001"/>
<text text-anchor="middle" x="162.5" y="-167.8" font-family="Times,serif" font-size="14.00">app → &#160;app</text>
</g>
</g>
</svg>
